<?xml version="1.0" encoding="UTF-8" standalone="no"?>
<!-- Created with Inkscape (http://www.inkscape.org/) -->

<svg
   xmlns:dc="http://purl.org/dc/elements/1.1/"
   xmlns:cc="http://creativecommons.org/ns#"
   xmlns:rdf="http://www.w3.org/1999/02/22-rdf-syntax-ns#"
   xmlns:svg="http://www.w3.org/2000/svg"
   xmlns="http://www.w3.org/2000/svg"
   version="1.1"
   width="744.09448"
   height="1052.3622"
   id="svg2">
  <defs
     id="defs4" />
  <metadata
     id="metadata7">
    <rdf:RDF>
      <cc:Work
         rdf:about="">
        <dc:format>image/svg+xml</dc:format>
        <dc:type
           rdf:resource="http://purl.org/dc/dcmitype/StillImage" />
        <dc:title></dc:title>
      </cc:Work>
    </rdf:RDF>
  </metadata>
  <g
     id="layer1">
    <g
       transform="matrix(0.07538995,0,0,0.07538995,69.670703,249.64987)"
       id="g3223"
       style="fill:none;stroke-width:0.025in">
      <rect
         width="900"
         height="600"
         rx="0"
         x="4200"
         y="3900"
         id="rect3225"
         style="stroke:#000000;stroke-width:7;stroke-linecap:butt;stroke-linejoin:miter" />
      <rect
         width="900"
         height="600"
         rx="0"
         x="4200"
         y="5100"
         id="rect3227"
         style="stroke:#000000;stroke-width:7;stroke-linecap:butt;stroke-linejoin:miter" />
      <rect
         width="900"
         height="600"
         rx="0"
         x="6300"
         y="2100"
         id="rect3229"
         style="stroke:#000000;stroke-width:7;stroke-linecap:butt;stroke-linejoin:miter" />
      <rect
         width="1200"
         height="600"
         rx="0"
         x="6300"
         y="3300"
         id="rect3231"
         style="stroke:#000000;stroke-width:7;stroke-linecap:butt;stroke-linejoin:miter" />
      <rect
         width="1500"
         height="600"
         rx="0"
         x="4200"
         y="2100"
         id="rect3233"
         style="stroke:#000000;stroke-width:7;stroke-linecap:butt;stroke-linejoin:miter" />
      <rect
         width="1200"
         height="600"
         rx="0"
         x="2400"
         y="3300"
         id="rect3235"
         style="stroke:#000000;stroke-width:7;stroke-linecap:butt;stroke-linejoin:miter" />
      <rect
         width="1200"
         height="600"
         rx="0"
         x="600"
         y="3300"
         id="rect3237"
         style="stroke:#000000;stroke-width:7;stroke-linecap:butt;stroke-linejoin:miter" />
      <rect
         width="1800"
         height="600"
         rx="0"
         x="1200"
         y="2100"
         id="rect3239"
         style="stroke:#000000;stroke-width:7;stroke-linecap:butt;stroke-linejoin:miter" />
      <polygon
         points="2740,2775 2700,2700 2700,2700 2660,2775 2700,2850 "
         id="polygon3241"
         style="stroke:#000000;stroke-width:7;stroke-linecap:butt;stroke-linejoin:miter" />
      <polygon
         points="5775,2360 5700,2400 5700,2400 5775,2440 5850,2400 "
         id="polygon3243"
         style="stroke:#000000;stroke-width:7;stroke-linecap:butt;stroke-linejoin:miter" />
      <polygon
         points="5440,2775 5400,2700 5400,2700 5360,2775 5400,2850 "
         id="polygon3245"
         style="stroke:#000000;stroke-width:7;stroke-linecap:butt;stroke-linejoin:miter" />
      <polygon
         points="4690,2775 4650,2700 4650,2700 4610,2775 4650,2850 "
         id="polygon3247"
         style="stroke:#000000;stroke-width:7;stroke-linecap:butt;stroke-linejoin:miter" />
      <polygon
         points="1540,2775 1500,2700 1500,2700 1460,2775 1500,2850 "
         id="polygon3249"
         style="stroke:#000000;stroke-width:7;stroke-linecap:butt;stroke-linejoin:miter" />
      <polygon
         points="4690,4575 4650,4500 4650,4500 4610,4575 4650,4650 "
         id="polygon3251"
         style="stroke:#000000;stroke-width:7;stroke-linecap:butt;stroke-linejoin:miter" />
      <polyline
         id="polyline3253"
         style="stroke:#000000;stroke-width:7;stroke-linecap:butt;stroke-linejoin:miter"
         points="1500,2850 1500,3180 " />
      <polygon
         points="1470,3179 1470,3179 1500,3299 1530,3179 "
         id="polygon3255"
         style="fill:#000000;stroke:#000000;stroke-width:7;stroke-miterlimit:8" />
      <polyline
         id="polyline3257"
         style="stroke:#000000;stroke-width:7;stroke-linecap:butt;stroke-linejoin:miter"
         points="2700,2850 2700,3180 " />
      <polygon
         points="2670,3179 2670,3179 2700,3299 2730,3179 "
         id="polygon3259"
         style="fill:#000000;stroke:#000000;stroke-width:7;stroke-miterlimit:8" />
      <polyline
         id="polyline3261"
         style="stroke:#000000;stroke-width:7;stroke-linecap:butt;stroke-linejoin:miter"
         points="4650,2850 4650,3780 " />
      <polygon
         points="4620,3779 4620,3779 4650,3899 4680,3779 "
         id="polygon3263"
         style="fill:#000000;stroke:#000000;stroke-width:7;stroke-miterlimit:8" />
      <polyline
         id="polyline3265"
         style="stroke:#000000;stroke-width:7;stroke-linecap:butt;stroke-linejoin:miter"
         points="4650,4650 4650,4980 " />
      <polygon
         points="4620,4979 4620,4979 4650,5099 4680,4979 "
         id="polygon3267"
         style="fill:#000000;stroke:#000000;stroke-width:7;stroke-miterlimit:8" />
      <polyline
         id="polyline3269"
         style="stroke:#000000;stroke-width:7;stroke-linecap:butt;stroke-linejoin:miter"
         points="5400,2850 5400,3600 6180,3600 " />
      <polygon
         points="6179,3630 6179,3630 6299,3600 6179,3570 "
         id="polygon3271"
         style="fill:#000000;stroke:#000000;stroke-width:7;stroke-miterlimit:8" />
      <polyline
         id="polyline3273"
         style="stroke:#000000;stroke-width:7;stroke-linecap:butt;stroke-linejoin:miter"
         points="5850,2400 6180,2400 " />
      <polygon
         points="6179,2430 6179,2430 6299,2400 6179,2370 "
         id="polygon3275"
         style="fill:#000000;stroke:#000000;stroke-width:7;stroke-miterlimit:8" />
      <polygon
         points="3075,2360 3000,2400 3000,2400 3075,2440 3150,2400 "
         id="polygon3277"
         style="stroke:#000000;stroke-width:7;stroke-linecap:butt;stroke-linejoin:miter" />
      <polyline
         id="polyline3279"
         style="stroke:#000000;stroke-width:7;stroke-linecap:butt;stroke-linejoin:miter"
         points="3150,2400 4080,2400 " />
      <polygon
         points="4079,2430 4079,2430 4199,2400 4079,2370 "
         id="polygon3281"
         style="fill:#000000;stroke:#000000;stroke-width:7;stroke-miterlimit:8" />
      <polyline
         id="polyline3283"
         style="stroke:#000000;stroke-width:7;stroke-linecap:butt;stroke-linejoin:miter;stroke-dasharray:40, 40"
         points="2100,2100 2100,1800 " />
      <polyline
         id="polyline3285"
         style="stroke:#000000;stroke-width:7;stroke-linecap:butt;stroke-linejoin:miter;stroke-dasharray:40, 40"
         points="4950,2100 4950,1800 " />
      <polyline
         id="polyline3287"
         style="stroke:#000000;stroke-width:7;stroke-linecap:butt;stroke-linejoin:miter;stroke-dasharray:40, 40"
         points="6750,2100 6750,1800 " />
      <text
         x="4650"
         y="4275"
         id="text3289"
         xml:space="preserve"
         style="font-size:192px;font-style:normal;font-weight:normal;text-anchor:middle;fill:#000000;font-family:Times">Task</text>
      <text
         x="4650"
         y="5475"
         id="text3291"
         xml:space="preserve"
         style="font-size:192px;font-style:normal;font-weight:normal;text-anchor:middle;fill:#000000;font-family:Times">Node</text>
      <text
         x="6750"
         y="2475"
         id="text3293"
         xml:space="preserve"
         style="font-size:192px;font-style:normal;font-weight:normal;text-anchor:middle;fill:#000000;font-family:Times">Sig</text>
      <text
         x="6900"
         y="3675"
         id="text3295"
         xml:space="preserve"
         style="font-size:192px;font-style:normal;font-weight:normal;text-anchor:middle;fill:#000000;font-family:Times">Walker</text>
      <text
         x="4950"
         y="2475"
         id="text3297"
         xml:space="preserve"
         style="font-size:192px;font-style:normal;font-weight:normal;text-anchor:middle;fill:#000000;font-family:Times">TaskMaster</text>
      <text
         x="3000"
         y="3675"
         id="text3299"
         xml:space="preserve"
         style="font-size:192px;font-style:normal;font-weight:normal;text-anchor:middle;fill:#000000;font-family:Times">Parallel</text>
      <text
         x="1200"
         y="3675"
         id="text3301"
         xml:space="preserve"
         style="font-size:192px;font-style:normal;font-weight:normal;text-anchor:middle;fill:#000000;font-family:Times">Serial</text>
      <text
         x="2099"
         y="2475"
         id="text3303"
         xml:space="preserve"
         style="font-size:204px;font-style:normal;font-weight:normal;text-anchor:middle;fill:#000000;font-family:Times">Jobs</text>
    </g>
  </g>
</svg>
