<?xml version="1.0" encoding="UTF-8" standalone="no"?>
<!-- Created with Inkscape (http://www.inkscape.org/) -->

<svg
   xmlns:dc="http://purl.org/dc/elements/1.1/"
   xmlns:cc="http://creativecommons.org/ns#"
   xmlns:rdf="http://www.w3.org/1999/02/22-rdf-syntax-ns#"
   xmlns:svg="http://www.w3.org/2000/svg"
   xmlns="http://www.w3.org/2000/svg"
   version="1.1"
   width="744.09448"
   height="1052.3622"
   id="svg2">
  <defs
     id="defs4" />
  <metadata
     id="metadata7">
    <rdf:RDF>
      <cc:Work
         rdf:about="">
        <dc:format>image/svg+xml</dc:format>
        <dc:type
           rdf:resource="http://purl.org/dc/dcmitype/StillImage" />
        <dc:title></dc:title>
      </cc:Work>
    </rdf:RDF>
  </metadata>
  <g
     id="layer1">
    <g
       transform="matrix(0.0747012,0,0,0.0747012,94.8705,241.0275)"
       id="g3392"
       style="fill:none;stroke-width:0.025in">
      <rect
         width="1800"
         height="600"
         rx="0"
         x="2700"
         y="1200"
         id="rect3394"
         style="stroke:#000000;stroke-width:7;stroke-linecap:butt;stroke-linejoin:miter" />
      <rect
         width="1800"
         height="600"
         rx="0"
         x="2700"
         y="3600"
         id="rect3396"
         style="stroke:#000000;stroke-width:7;stroke-linecap:butt;stroke-linejoin:miter" />
      <rect
         width="1200"
         height="600"
         rx="0"
         x="5700"
         y="1800"
         id="rect3398"
         style="stroke:#000000;stroke-width:7;stroke-linecap:butt;stroke-linejoin:miter" />
      <rect
         width="1200"
         height="600"
         rx="0"
         x="2100"
         y="2400"
         id="rect3400"
         style="stroke:#000000;stroke-width:7;stroke-linecap:butt;stroke-linejoin:miter" />
      <rect
         width="1200"
         height="600"
         rx="0"
         x="3900"
         y="2400"
         id="rect3402"
         style="stroke:#000000;stroke-width:7;stroke-linecap:butt;stroke-linejoin:miter" />
      <rect
         width="900"
         height="600"
         rx="0"
         x="2400"
         y="6300"
         id="rect3404"
         style="stroke:#000000;stroke-width:7;stroke-linecap:butt;stroke-linejoin:miter" />
      <rect
         width="900"
         height="600"
         rx="0"
         x="0"
         y="6300"
         id="rect3406"
         style="stroke:#000000;stroke-width:7;stroke-linecap:butt;stroke-linejoin:miter" />
      <rect
         width="900"
         height="600"
         rx="0"
         x="1200"
         y="6300"
         id="rect3408"
         style="stroke:#000000;stroke-width:7;stroke-linecap:butt;stroke-linejoin:miter" />
      <rect
         width="1200"
         height="600"
         rx="0"
         x="1050"
         y="5100"
         id="rect3410"
         style="stroke:#000000;stroke-width:7;stroke-linecap:butt;stroke-linejoin:miter" />
      <polygon
         points="1650,5700 1650,5700 1575,5850 1725,5850 "
         id="polygon3412"
         style="stroke:#000000;stroke-width:7;stroke-linecap:butt;stroke-linejoin:miter" />
      <polyline
         id="polyline3414"
         style="stroke:#000000;stroke-width:7;stroke-linecap:butt;stroke-linejoin:miter"
         points="450,6300 450,6000 2700,6000 2700,6300 " />
      <polyline
         id="polyline3416"
         style="stroke:#000000;stroke-width:7;stroke-linecap:butt;stroke-linejoin:miter"
         points="1650,6300 1650,5850 " />
      <rect
         width="1200"
         height="600"
         rx="0"
         x="5100"
         y="6300"
         id="rect3418"
         style="stroke:#000000;stroke-width:7;stroke-linecap:butt;stroke-linejoin:miter;stroke-dasharray:40, 40" />
      <rect
         width="900"
         height="600"
         rx="0"
         x="6600"
         y="6300"
         id="rect3420"
         style="stroke:#000000;stroke-width:7;stroke-linecap:butt;stroke-linejoin:miter;stroke-dasharray:40, 40" />
      <rect
         width="1200"
         height="600"
         rx="0"
         x="4950"
         y="5100"
         id="rect3422"
         style="stroke:#000000;stroke-width:7;stroke-linecap:butt;stroke-linejoin:miter;stroke-dasharray:40, 40" />
      <polygon
         points="5550,5700 5550,5700 5475,5850 5625,5850 "
         id="polygon3424"
         style="stroke:#000000;stroke-width:7;stroke-linecap:butt;stroke-linejoin:miter" />
      <polyline
         id="polyline3426"
         style="stroke:#000000;stroke-width:7;stroke-linecap:butt;stroke-linejoin:miter;stroke-dasharray:40, 40"
         points="4350,6300 4350,6000 7050,6000 7050,6300 " />
      <polyline
         id="polyline3428"
         style="stroke:#000000;stroke-width:7;stroke-linecap:butt;stroke-linejoin:miter;stroke-dasharray:40, 40"
         points="5550,5850 5550,6300 " />
      <rect
         width="900"
         height="600"
         rx="0"
         x="3900"
         y="6300"
         id="rect3430"
         style="stroke:#000000;stroke-width:7;stroke-linecap:butt;stroke-linejoin:miter;stroke-dasharray:40, 40" />
      <rect
         width="1200"
         height="600"
         rx="0"
         x="5700"
         y="3000"
         id="rect3432"
         style="stroke:#000000;stroke-width:7;stroke-linecap:butt;stroke-linejoin:miter" />
      <rect
         width="900"
         height="600"
         rx="0"
         x="900"
         y="1200"
         id="rect3434"
         style="stroke:#000000;stroke-width:7;stroke-linecap:butt;stroke-linejoin:miter" />
      <polygon
         points="3600,4200 3600,4200 3525,4350 3675,4350 "
         id="polygon3436"
         style="stroke:#000000;stroke-width:7;stroke-linecap:butt;stroke-linejoin:miter" />
      <polyline
         id="polyline3438"
         style="stroke:#000000;stroke-width:7;stroke-linecap:butt;stroke-linejoin:miter"
         points="1800,5100 1800,4800 5550,4800 5550,5100 " />
      <polyline
         id="polyline3440"
         style="stroke:#000000;stroke-width:7;stroke-linecap:butt;stroke-linejoin:miter"
         points="3600,4800 3600,4350 " />
      <polygon
         points="4240,1875 4200,1800 4200,1800 4160,1875 4200,1950 "
         id="polygon3442"
         style="stroke:#000000;stroke-width:7;stroke-linecap:butt;stroke-linejoin:miter" />
      <polygon
         points="3040,6225 3000,6150 3000,6150 2960,6225 3000,6300 "
         id="polygon3444"
         style="stroke:#000000;stroke-width:7;stroke-linecap:butt;stroke-linejoin:miter" />
      <polygon
         points="6340,3675 6300,3600 6300,3600 6260,3675 6300,3750 "
         id="polygon3446"
         style="stroke:#000000;stroke-width:7;stroke-linecap:butt;stroke-linejoin:miter" />
      <polygon
         points="6340,2475 6300,2400 6300,2400 6260,2475 6300,2550 "
         id="polygon3448"
         style="stroke:#000000;stroke-width:7;stroke-linecap:butt;stroke-linejoin:miter" />
      <polygon
         points="3040,4275 3000,4200 3000,4200 2960,4275 3000,4350 "
         id="polygon3450"
         style="stroke:#000000;stroke-width:7;stroke-linecap:butt;stroke-linejoin:miter" />
      <polygon
         points="4240,3525 4200,3450 4200,3450 4160,3525 4200,3600 "
         id="polygon3452"
         style="stroke:#000000;stroke-width:7;stroke-linecap:butt;stroke-linejoin:miter" />
      <polygon
         points="3040,3525 3000,3450 3000,3450 2960,3525 3000,3600 "
         id="polygon3454"
         style="stroke:#000000;stroke-width:7;stroke-linecap:butt;stroke-linejoin:miter" />
      <polyline
         id="polyline3456"
         style="stroke:#000000;stroke-width:7;stroke-linecap:butt;stroke-linejoin:miter"
         points="3000,6150 3000,5400 2369,5400 " />
      <polygon
         points="2371,5370 2371,5370 2251,5400 2371,5430 "
         id="polygon3458"
         style="fill:#000000;stroke:#000000;stroke-width:7;stroke-miterlimit:8" />
      <polyline
         id="polyline3460"
         style="stroke:#000000;stroke-width:7;stroke-linecap:butt;stroke-linejoin:miter"
         points="3000,4350 3000,4500 1800,4500 1800,3900 2580,3900 " />
      <polygon
         points="2579,3930 2579,3930 2699,3900 2579,3870 "
         id="polygon3462"
         style="fill:#000000;stroke:#000000;stroke-width:7;stroke-miterlimit:8" />
      <polyline
         id="polyline3464"
         style="stroke:#000000;stroke-width:7;stroke-linecap:butt;stroke-linejoin:miter"
         points="6300,3750 6300,3900 4619,3900 " />
      <polygon
         points="4621,3870 4621,3870 4501,3900 4621,3930 "
         id="polygon3466"
         style="fill:#000000;stroke:#000000;stroke-width:7;stroke-miterlimit:8" />
      <polyline
         id="polyline3468"
         style="stroke:#000000;stroke-width:7;stroke-linecap:butt;stroke-linejoin:miter"
         points="4200,3450 4200,3119 " />
      <polygon
         points="4230,3121 4230,3121 4200,3001 4170,3121 "
         id="polygon3470"
         style="fill:#000000;stroke:#000000;stroke-width:7;stroke-miterlimit:8" />
      <polyline
         id="polyline3472"
         style="stroke:#000000;stroke-width:7;stroke-linecap:butt;stroke-linejoin:miter"
         points="3000,3450 3000,3119 " />
      <polygon
         points="3030,3121 3030,3121 3000,3001 2970,3121 "
         id="polygon3474"
         style="fill:#000000;stroke:#000000;stroke-width:7;stroke-miterlimit:8" />
      <polygon
         points="3040,1875 3000,1800 3000,1800 2960,1875 3000,1950 "
         id="polygon3476"
         style="stroke:#000000;stroke-width:7;stroke-linecap:butt;stroke-linejoin:miter" />
      <polyline
         id="polyline3478"
         style="stroke:#000000;stroke-width:7;stroke-linecap:butt;stroke-linejoin:miter"
         points="3000,1950 3000,2280 " />
      <polygon
         points="2970,2279 2970,2279 3000,2399 3030,2279 "
         id="polygon3480"
         style="fill:#000000;stroke:#000000;stroke-width:7;stroke-miterlimit:8" />
      <polyline
         id="polyline3482"
         style="stroke:#000000;stroke-width:7;stroke-linecap:butt;stroke-linejoin:miter"
         points="4200,1950 4200,2280 " />
      <polygon
         points="4170,2279 4170,2279 4200,2399 4230,2279 "
         id="polygon3484"
         style="fill:#000000;stroke:#000000;stroke-width:7;stroke-miterlimit:8" />
      <polyline
         id="polyline3486"
         style="stroke:#000000;stroke-width:7;stroke-linecap:butt;stroke-linejoin:miter"
         points="6300,2550 6300,2880 " />
      <polygon
         points="6270,2879 6270,2879 6300,2999 6330,2879 "
         id="polygon3488"
         style="fill:#000000;stroke:#000000;stroke-width:7;stroke-miterlimit:8" />
      <polyline
         id="polyline3490"
         style="stroke:#000000;stroke-width:7;stroke-linecap:butt;stroke-linejoin:miter"
         points="5100,6600 4919,6600 " />
      <polygon
         points="4921,6570 4921,6570 4801,6600 4921,6630 "
         id="polygon3492"
         style="fill:#000000;stroke:#000000;stroke-width:7;stroke-miterlimit:8" />
      <polyline
         id="polyline3494"
         style="stroke:#000000;stroke-width:7;stroke-linecap:butt;stroke-linejoin:miter"
         points="6600,6600 6419,6600 " />
      <polygon
         points="6421,6570 6421,6570 6301,6600 6421,6630 "
         id="polygon3496"
         style="fill:#000000;stroke:#000000;stroke-width:7;stroke-miterlimit:8" />
      <polygon
         points="1390,1875 1350,1800 1350,1800 1310,1875 1350,1950 "
         id="polygon3498"
         style="stroke:#000000;stroke-width:7;stroke-linecap:butt;stroke-linejoin:miter" />
      <polyline
         id="polyline3500"
         style="stroke:#000000;stroke-width:7;stroke-linecap:butt;stroke-linejoin:miter"
         points="1350,1950 1350,4980 " />
      <polygon
         points="1320,4979 1320,4979 1350,5099 1380,4979 "
         id="polygon3502"
         style="fill:#000000;stroke:#000000;stroke-width:7;stroke-miterlimit:8" />
      <polyline
         id="polyline3504"
         style="stroke:#000000;stroke-width:7;stroke-linecap:butt;stroke-linejoin:miter;stroke-dasharray:40, 40"
         points="1350,1200 1350,900 " />
      <polyline
         id="polyline3506"
         style="stroke:#000000;stroke-width:7;stroke-linecap:butt;stroke-linejoin:miter;stroke-dasharray:40, 40"
         points="3600,1200 3600,900 " />
      <text
         x="2925"
         y="1575"
         id="text3508"
         xml:space="preserve"
         style="font-size:192px;font-style:normal;font-weight:normal;text-anchor:start;fill:#000000;font-family:Times">Environment</text>
      <text
         x="3375"
         y="3975"
         id="text3510"
         xml:space="preserve"
         style="font-size:192px;font-style:normal;font-weight:normal;text-anchor:start;fill:#000000;font-family:Times">Node</text>
      <text
         x="5925"
         y="2175"
         id="text3512"
         xml:space="preserve"
         style="font-size:192px;font-style:normal;font-weight:normal;text-anchor:start;fill:#000000;font-family:Times">Walker</text>
      <text
         x="2325"
         y="2775"
         id="text3514"
         xml:space="preserve"
         style="font-size:192px;font-style:normal;font-weight:normal;text-anchor:start;fill:#000000;font-family:Times">Builder</text>
      <text
         x="4125"
         y="2775"
         id="text3516"
         xml:space="preserve"
         style="font-size:192px;font-style:normal;font-weight:normal;text-anchor:start;fill:#000000;font-family:Times">Scanner</text>
      <text
         x="2700"
         y="6675"
         id="text3518"
         xml:space="preserve"
         style="font-size:192px;font-style:normal;font-weight:normal;text-anchor:start;fill:#000000;font-family:Times">Dir</text>
      <text
         x="150"
         y="6675"
         id="text3520"
         xml:space="preserve"
         style="font-size:192px;font-style:normal;font-weight:normal;text-anchor:start;fill:#000000;font-family:Times">Entry</text>
      <text
         x="1425"
         y="6675"
         id="text3522"
         xml:space="preserve"
         style="font-size:192px;font-style:normal;font-weight:normal;text-anchor:start;fill:#000000;font-family:Times">File</text>
      <text
         x="1200"
         y="5475"
         id="text3524"
         xml:space="preserve"
         style="font-size:192px;font-style:normal;font-weight:normal;text-anchor:start;fill:#000000;font-family:Times">Node.FS</text>
      <text
         x="5325"
         y="6675"
         id="text3526"
         xml:space="preserve"
         style="font-size:192px;font-style:normal;font-weight:normal;text-anchor:start;fill:#000000;font-family:Times">Record</text>
      <text
         x="6750"
         y="6675"
         id="text3528"
         xml:space="preserve"
         style="font-size:192px;font-style:normal;font-weight:normal;text-anchor:start;fill:#000000;font-family:Times">Field</text>
      <text
         x="5100"
         y="5475"
         id="text3530"
         xml:space="preserve"
         style="font-size:192px;font-style:normal;font-weight:normal;text-anchor:start;fill:#000000;font-family:Times">Node.DB</text>
      <text
         x="4050"
         y="6675"
         id="text3532"
         xml:space="preserve"
         style="font-size:192px;font-style:normal;font-weight:normal;text-anchor:start;fill:#000000;font-family:Times">Table</text>
      <text
         x="5850"
         y="3375"
         id="text3534"
         xml:space="preserve"
         style="font-size:192px;font-style:normal;font-weight:normal;text-anchor:start;fill:#000000;font-family:Times">Wrapper</text>
      <text
         x="1200"
         y="1575"
         id="text3536"
         xml:space="preserve"
         style="font-size:192px;font-style:normal;font-weight:normal;text-anchor:start;fill:#000000;font-family:Times">FS</text>
    </g>
  </g>
</svg>
